<?xml version="1.0" encoding="utf-8"?>
<!-- Generator: Adobe Illustrator 23.0.1, SVG Export Plug-In . SVG Version: 6.00 Build 0)  -->
<svg version="1.1" id="Layer_1" xmlns="http://www.w3.org/2000/svg" xmlns:xlink="http://www.w3.org/1999/xlink" x="0px" y="0px"
	 viewBox="0 0 540 540" style="enable-background:new 0 0 540 540;" xml:space="preserve">
<style type="text/css">
	.st0{clip-path:url(#SVGID_2_);}
	.st1{clip-path:url(#SVGID_4_);}
	.st2{fill-rule:evenodd;clip-rule:evenodd;fill:#147141;}
	.st3{fill-rule:evenodd;clip-rule:evenodd;fill-opacity:0;}
	.st4{fill:#CDE2CB;}
</style>
<g>
	<g>
		<defs>
			<circle id="SVGID_1_" cx="270" cy="270" r="270"/>
		</defs>
		<clipPath id="SVGID_2_">
			<use xlink:href="#SVGID_1_"  style="overflow:visible;"/>
		</clipPath>
		<g class="st0">
			<g>
				<defs>
					<rect id="SVGID_3_" x="-230" width="960" height="540"/>
				</defs>
				<clipPath id="SVGID_4_">
					<use xlink:href="#SVGID_3_"  style="overflow:visible;"/>
				</clipPath>
				<g class="st1">
					<path class="st2" d="M-230,0h960v540h-960V0z"/>
					<path class="st3" d="M-301.8,351L331-281.8L801.8,189L169,821.8L-301.8,351z"/>
					<path class="st4" d="M419.7,383.1c-16.6,16.6-34,28-52.2,34.1c-18.2,6.2-35.9,7.2-53,3.2s-32.3-12.7-45.6-26l-115-115
						l-26.4,26.4l-9.4-9.4l26.4-26.4l-18.9-18.9c-22.6-22.6-22.6-45.3,0-67.9l26.4-26.4l52.8,52.8l52.8-52.8l9.4,9.4L214.2,219
						l115,115c23.1,23.1,41.4,36.6,54.7,40.4s24.6,1,33.9-8.3c9-9,12.6-21.4,10.6-37s-10.6-30.9-25.6-46l9.4-9.4
						c18.6,18.6,28.4,37.7,29.2,57.1C442.3,350.4,435,367.8,419.7,383.1z"/>
				</g>
			</g>
		</g>
	</g>
</g>
</svg>
